<mxfile host="Electron" agent="Mozilla/5.0 (X11; Linux x86_64) AppleWebKit/537.36 (KHTML, like Gecko) draw.io/26.0.4 Chrome/128.0.6613.186 Electron/32.2.5 Safari/537.36" version="26.0.4">
  <diagram name="Page-1" id="mgJEYeS9tRpTVSKZg7YC">
    <mxGraphModel dx="1114" dy="1198" grid="1" gridSize="10" guides="1" tooltips="1" connect="1" arrows="1" fold="1" page="1" pageScale="1" pageWidth="850" pageHeight="1100" math="0" shadow="0">
      <root>
        <mxCell id="0" />
        <mxCell id="1" parent="0" />
        <mxCell id="lr74s33yTwgEpbGQVJQK-1" value="VPC" style="points=[[0,0],[0.25,0],[0.5,0],[0.75,0],[1,0],[1,0.25],[1,0.5],[1,0.75],[1,1],[0.75,1],[0.5,1],[0.25,1],[0,1],[0,0.75],[0,0.5],[0,0.25]];outlineConnect=0;gradientColor=none;html=1;whiteSpace=wrap;fontSize=12;fontStyle=0;container=1;pointerEvents=0;collapsible=0;recursiveResize=0;shape=mxgraph.aws4.group;grIcon=mxgraph.aws4.group_vpc2;strokeColor=#8C4FFF;fillColor=none;verticalAlign=top;align=left;spacingLeft=30;fontColor=#AAB7B8;dashed=0;" vertex="1" parent="1">
          <mxGeometry x="190" y="260" width="440" height="580" as="geometry" />
        </mxCell>
        <mxCell id="lr74s33yTwgEpbGQVJQK-9" value="Private subnet" style="points=[[0,0],[0.25,0],[0.5,0],[0.75,0],[1,0],[1,0.25],[1,0.5],[1,0.75],[1,1],[0.75,1],[0.5,1],[0.25,1],[0,1],[0,0.75],[0,0.5],[0,0.25]];outlineConnect=0;gradientColor=none;html=1;whiteSpace=wrap;fontSize=12;fontStyle=0;container=1;pointerEvents=0;collapsible=0;recursiveResize=0;shape=mxgraph.aws4.group;grIcon=mxgraph.aws4.group_security_group;grStroke=0;strokeColor=#00A4A6;fillColor=#E6F6F7;verticalAlign=top;align=left;spacingLeft=30;fontColor=#147EBA;dashed=0;" vertex="1" parent="lr74s33yTwgEpbGQVJQK-1">
          <mxGeometry x="30" y="280" width="390" height="275" as="geometry" />
        </mxCell>
        <mxCell id="lr74s33yTwgEpbGQVJQK-8" value="" style="sketch=0;outlineConnect=0;fontColor=#232F3E;gradientColor=none;fillColor=#C925D1;strokeColor=none;dashed=0;verticalLabelPosition=bottom;verticalAlign=top;align=center;html=1;fontSize=12;fontStyle=0;aspect=fixed;pointerEvents=1;shape=mxgraph.aws4.rds_instance;" vertex="1" parent="lr74s33yTwgEpbGQVJQK-9">
          <mxGeometry x="131" y="180" width="78" height="78" as="geometry" />
        </mxCell>
        <mxCell id="lr74s33yTwgEpbGQVJQK-10" style="edgeStyle=orthogonalEdgeStyle;rounded=0;orthogonalLoop=1;jettySize=auto;html=1;" edge="1" parent="lr74s33yTwgEpbGQVJQK-9" source="lr74s33yTwgEpbGQVJQK-7" target="lr74s33yTwgEpbGQVJQK-8">
          <mxGeometry relative="1" as="geometry" />
        </mxCell>
        <mxCell id="lr74s33yTwgEpbGQVJQK-7" value="" style="sketch=0;outlineConnect=0;fontColor=#232F3E;gradientColor=none;fillColor=#C925D1;strokeColor=none;dashed=0;verticalLabelPosition=bottom;verticalAlign=top;align=center;html=1;fontSize=12;fontStyle=0;aspect=fixed;pointerEvents=1;shape=mxgraph.aws4.rds_proxy;" vertex="1" parent="lr74s33yTwgEpbGQVJQK-9">
          <mxGeometry x="131" y="35" width="78" height="78" as="geometry" />
        </mxCell>
        <mxCell id="lr74s33yTwgEpbGQVJQK-11" style="edgeStyle=orthogonalEdgeStyle;rounded=0;orthogonalLoop=1;jettySize=auto;html=1;" edge="1" parent="lr74s33yTwgEpbGQVJQK-1" source="lr74s33yTwgEpbGQVJQK-2" target="lr74s33yTwgEpbGQVJQK-7">
          <mxGeometry relative="1" as="geometry">
            <Array as="points">
              <mxPoint x="69" y="210" />
              <mxPoint x="200" y="210" />
            </Array>
          </mxGeometry>
        </mxCell>
        <mxCell id="lr74s33yTwgEpbGQVJQK-2" value="" style="sketch=0;points=[[0,0,0],[0.25,0,0],[0.5,0,0],[0.75,0,0],[1,0,0],[0,1,0],[0.25,1,0],[0.5,1,0],[0.75,1,0],[1,1,0],[0,0.25,0],[0,0.5,0],[0,0.75,0],[1,0.25,0],[1,0.5,0],[1,0.75,0]];outlineConnect=0;fontColor=#232F3E;fillColor=#ED7100;strokeColor=#ffffff;dashed=0;verticalLabelPosition=bottom;verticalAlign=top;align=center;html=1;fontSize=12;fontStyle=0;aspect=fixed;shape=mxgraph.aws4.resourceIcon;resIcon=mxgraph.aws4.lambda;" vertex="1" parent="lr74s33yTwgEpbGQVJQK-1">
          <mxGeometry x="30" y="44" width="78" height="78" as="geometry" />
        </mxCell>
        <mxCell id="lr74s33yTwgEpbGQVJQK-12" style="edgeStyle=orthogonalEdgeStyle;rounded=0;orthogonalLoop=1;jettySize=auto;html=1;" edge="1" parent="lr74s33yTwgEpbGQVJQK-1" source="lr74s33yTwgEpbGQVJQK-3" target="lr74s33yTwgEpbGQVJQK-7">
          <mxGeometry relative="1" as="geometry">
            <Array as="points">
              <mxPoint x="161" y="210" />
              <mxPoint x="200" y="210" />
            </Array>
          </mxGeometry>
        </mxCell>
        <mxCell id="lr74s33yTwgEpbGQVJQK-3" value="" style="sketch=0;points=[[0,0,0],[0.25,0,0],[0.5,0,0],[0.75,0,0],[1,0,0],[0,1,0],[0.25,1,0],[0.5,1,0],[0.75,1,0],[1,1,0],[0,0.25,0],[0,0.5,0],[0,0.75,0],[1,0.25,0],[1,0.5,0],[1,0.75,0]];outlineConnect=0;fontColor=#232F3E;fillColor=#ED7100;strokeColor=#ffffff;dashed=0;verticalLabelPosition=bottom;verticalAlign=top;align=center;html=1;fontSize=12;fontStyle=0;aspect=fixed;shape=mxgraph.aws4.resourceIcon;resIcon=mxgraph.aws4.lambda;" vertex="1" parent="lr74s33yTwgEpbGQVJQK-1">
          <mxGeometry x="122" y="44" width="78" height="78" as="geometry" />
        </mxCell>
        <mxCell id="lr74s33yTwgEpbGQVJQK-13" style="edgeStyle=orthogonalEdgeStyle;rounded=0;orthogonalLoop=1;jettySize=auto;html=1;" edge="1" parent="lr74s33yTwgEpbGQVJQK-1" source="lr74s33yTwgEpbGQVJQK-4" target="lr74s33yTwgEpbGQVJQK-7">
          <mxGeometry relative="1" as="geometry">
            <Array as="points">
              <mxPoint x="240" y="210" />
              <mxPoint x="200" y="210" />
            </Array>
          </mxGeometry>
        </mxCell>
        <mxCell id="lr74s33yTwgEpbGQVJQK-4" value="" style="sketch=0;points=[[0,0,0],[0.25,0,0],[0.5,0,0],[0.75,0,0],[1,0,0],[0,1,0],[0.25,1,0],[0.5,1,0],[0.75,1,0],[1,1,0],[0,0.25,0],[0,0.5,0],[0,0.75,0],[1,0.25,0],[1,0.5,0],[1,0.75,0]];outlineConnect=0;fontColor=#232F3E;fillColor=#ED7100;strokeColor=#ffffff;dashed=0;verticalLabelPosition=bottom;verticalAlign=top;align=center;html=1;fontSize=12;fontStyle=0;aspect=fixed;shape=mxgraph.aws4.resourceIcon;resIcon=mxgraph.aws4.lambda;" vertex="1" parent="lr74s33yTwgEpbGQVJQK-1">
          <mxGeometry x="210" y="44" width="78" height="78" as="geometry" />
        </mxCell>
        <mxCell id="lr74s33yTwgEpbGQVJQK-14" style="edgeStyle=orthogonalEdgeStyle;rounded=0;orthogonalLoop=1;jettySize=auto;html=1;" edge="1" parent="lr74s33yTwgEpbGQVJQK-1" source="lr74s33yTwgEpbGQVJQK-5" target="lr74s33yTwgEpbGQVJQK-7">
          <mxGeometry relative="1" as="geometry">
            <Array as="points">
              <mxPoint x="339" y="210" />
              <mxPoint x="200" y="210" />
            </Array>
          </mxGeometry>
        </mxCell>
        <mxCell id="lr74s33yTwgEpbGQVJQK-5" value="" style="sketch=0;points=[[0,0,0],[0.25,0,0],[0.5,0,0],[0.75,0,0],[1,0,0],[0,1,0],[0.25,1,0],[0.5,1,0],[0.75,1,0],[1,1,0],[0,0.25,0],[0,0.5,0],[0,0.75,0],[1,0.25,0],[1,0.5,0],[1,0.75,0]];outlineConnect=0;fontColor=#232F3E;fillColor=#ED7100;strokeColor=#ffffff;dashed=0;verticalLabelPosition=bottom;verticalAlign=top;align=center;html=1;fontSize=12;fontStyle=0;aspect=fixed;shape=mxgraph.aws4.resourceIcon;resIcon=mxgraph.aws4.lambda;" vertex="1" parent="lr74s33yTwgEpbGQVJQK-1">
          <mxGeometry x="300" y="44" width="78" height="78" as="geometry" />
        </mxCell>
        <mxCell id="lr74s33yTwgEpbGQVJQK-6" value="..." style="text;html=1;align=center;verticalAlign=middle;resizable=0;points=[];autosize=1;strokeColor=none;fillColor=none;fontSize=30;" vertex="1" parent="lr74s33yTwgEpbGQVJQK-1">
          <mxGeometry x="378" y="50" width="50" height="50" as="geometry" />
        </mxCell>
        <mxCell id="lr74s33yTwgEpbGQVJQK-15" value="IAM Authentication" style="sketch=0;outlineConnect=0;fontColor=#232F3E;gradientColor=none;fillColor=#DD344C;strokeColor=none;dashed=0;verticalLabelPosition=bottom;verticalAlign=top;align=center;html=1;fontSize=12;fontStyle=0;aspect=fixed;pointerEvents=1;shape=mxgraph.aws4.permissions;" vertex="1" parent="lr74s33yTwgEpbGQVJQK-1">
          <mxGeometry x="350" y="160" width="62" height="78" as="geometry" />
        </mxCell>
        <mxCell id="lr74s33yTwgEpbGQVJQK-16" value="Lambda Functions" style="text;html=1;align=center;verticalAlign=middle;resizable=0;points=[];autosize=1;strokeColor=none;fillColor=none;fontSize=15;fontStyle=1" vertex="1" parent="lr74s33yTwgEpbGQVJQK-1">
          <mxGeometry x="138" y="10" width="150" height="30" as="geometry" />
        </mxCell>
      </root>
    </mxGraphModel>
  </diagram>
</mxfile>
